<svg xmlns="http://www.w3.org/2000/svg" version="1.1" xmlns:xlink="http://www.w3.org/1999/xlink" xmlns:svgjs="http://svgjs.com/svgjs" width="1440" height="560" preserveAspectRatio="none" viewBox="0 0 1440 560"><g mask="url(&quot;#SvgjsMask1016&quot;)" fill="none"><rect width="1440" height="560" x="0" y="0" fill="#0e2a47"></rect><path d="M 0,38 C 57.6,80 172.8,243.2 288,248 C 403.2,252.8 460.8,71.2 576,62 C 691.2,52.8 748.8,202.2 864,202 C 979.2,201.8 1036.8,58.8 1152,61 C 1267.2,63.2 1382.4,182.6 1440,213L1440 560L0 560z" fill="#184a7e"></path><path d="M 0,519 C 41.2,492.8 123.6,381.6 206,388 C 288.4,394.4 329.6,548.4 412,551 C 494.4,553.6 535.6,422.2 618,401 C 700.4,379.8 741.6,444.8 824,445 C 906.4,445.2 947.6,395 1030,402 C 1112.4,409 1154,477.2 1236,480 C 1318,482.8 1399.2,428.8 1440,416L1440 560L0 560z" fill="#2264ab"></path></g><defs><mask id="SvgjsMask1016"><rect width="1440" height="560" fill="#ffffff"></rect></mask></defs></svg>