<svg width="366" height="396" viewBox="0 0 366 396" fill="none" xmlns="http://www.w3.org/2000/svg">
<g clip-path="url(#clip0_14_402)">
<rect width="366" height="396" rx="61" fill="white"/>
<mask id="mask0_14_402" style="mask-type:alpha" maskUnits="userSpaceOnUse" x="38" y="42" width="290" height="452">
<path d="M128.636 122.755C135.237 126.898 142.179 131.072 149.023 135.036C155.867 139 162.825 142.851 169.782 146.184C171.513 147.042 173.245 147.802 174.976 148.579C175.834 148.967 176.691 149.275 177.549 149.631L178.843 150.165L179.895 150.553C182.117 151.522 184.572 151.831 186.966 151.443C189.58 150.784 191.926 149.331 193.68 147.285C194.825 146.054 195.87 144.734 196.803 143.337C197.289 142.609 197.758 141.848 198.195 141.071L199.44 138.79L208.599 140.893C208.465 142.111 208.265 143.321 208 144.518C207.741 145.65 207.45 146.783 207.094 147.916C206.389 150.237 205.428 152.473 204.23 154.582C202.91 156.884 201.277 158.992 199.376 160.844C197.308 162.884 194.884 164.529 192.224 165.698C189.485 166.885 186.55 167.554 183.568 167.672C180.776 167.799 177.98 167.521 175.267 166.847C174.652 166.701 173.908 166.539 173.39 166.361L171.772 165.86C170.721 165.52 169.636 165.196 168.617 164.824C166.578 164.064 164.475 163.352 162.517 162.51C154.708 159.276 147.086 155.609 139.687 151.524C136.014 149.517 132.39 147.463 128.83 145.294C125.27 143.126 121.759 140.99 118.183 138.58L128.636 122.755Z" fill="#FFC3BD"/>
<path d="M109.818 134.292C112.294 146.233 142.341 163.416 142.341 163.416L153.295 134.632C153.295 134.632 144.735 129.276 131.953 120.733C119.171 112.19 107.084 121.186 109.818 134.292Z" fill="#263238"/>
<path d="M195.962 143.402L204.65 129.762L211.123 144.615C211.123 144.615 205.977 152.414 198.033 148.401L195.962 143.402Z" fill="#FFC3BD"/>
<path d="M215.734 124.6L219.989 135.732L211.139 144.599L204.651 129.761L215.734 124.6Z" fill="#FFC3BD"/>
<path d="M124.315 117.756C124.315 117.756 141.677 153.546 132.875 225.581L66.5356 234.286C65.3383 224.092 68.1536 173.238 54.7726 126.234C61.9738 123.858 69.3181 121.94 76.7615 120.49C86.0722 118.717 95.478 117.485 104.931 116.801C111.408 116.603 117.89 116.923 124.315 117.756Z" fill="#263238"/>
<path opacity="0.2" d="M54.8375 126.267L55.1288 126.17C61.6009 124.357 69.06 131.186 73.0403 141.153C78.849 155.715 85.6932 174.921 85.6932 174.921L64.2544 180.05C62.7817 161.87 59.6293 143.865 54.8375 126.267Z" fill="black"/>
<path d="M77.2961 88.1946C79.7393 97.0938 82.7165 113.598 76.8269 120.555C84.4591 126.92 93.8166 130.864 103.702 131.881C109.899 125.296 104.997 116.882 104.997 116.882C94.7061 115.766 94.431 108.177 95.6769 100.848L77.2961 88.1946Z" fill="#FFC3BD"/>
<path d="M128.927 199.337L114.057 116.817C111.321 117.309 108.709 118.335 106.37 119.836C104.03 121.337 102.01 123.285 100.423 125.567C98.8363 127.849 97.7148 130.422 97.1224 133.138C96.5301 135.854 96.4786 138.659 96.9708 141.395L104.333 182.299C105.341 187.816 108.496 192.709 113.107 195.903C117.717 199.097 123.407 200.332 128.927 199.337Z" fill="#407BFF"/>
<path opacity="0.3" d="M128.927 199.337L114.057 116.817C111.321 117.309 108.709 118.335 106.37 119.836C104.03 121.337 102.01 123.285 100.423 125.567C98.8363 127.849 97.7148 130.422 97.1224 133.138C96.5301 135.854 96.4786 138.659 96.9708 141.395L104.333 182.299C105.341 187.816 108.496 192.709 113.107 195.903C117.717 199.097 123.407 200.332 128.927 199.337Z" fill="black"/>
<path d="M185.898 281.014L175.478 282.891C173.686 283.213 171.847 283.149 170.082 282.705C168.316 282.261 166.666 281.447 165.24 280.316C163.813 279.185 162.644 277.764 161.809 276.146C160.974 274.528 160.493 272.752 160.398 270.934L156.11 188.415C155.943 185.297 156.922 182.225 158.862 179.779C160.802 177.332 163.57 175.679 166.644 175.131L185.914 171.652C187.984 171.283 190.112 171.428 192.112 172.074C194.112 172.721 195.923 173.848 197.385 175.358C198.847 176.869 199.916 178.715 200.497 180.735C201.078 182.754 201.155 184.886 200.719 186.942L192.969 223.219C192.706 224.468 192.63 225.749 192.742 227.021L196.334 267.261C196.621 270.442 195.71 273.615 193.78 276.159C191.849 278.703 189.039 280.435 185.898 281.014Z" fill="#407BFF"/>
<path opacity="0.2" d="M185.914 171.62L166.643 175.082C163.572 175.637 160.809 177.292 158.87 179.737C156.931 182.182 155.95 185.25 156.11 188.366L157.517 215.759C170.224 213.602 182.964 211.806 195.735 210.371L200.719 186.878C201.152 184.823 201.074 182.694 200.491 180.676C199.909 178.659 198.839 176.816 197.377 175.309C195.915 173.802 194.104 172.677 192.106 172.034C190.107 171.391 187.98 171.248 185.914 171.62Z" fill="black"/>
<path d="M201.836 248.589L184.313 251.728L184.458 221.342L201.982 218.186L201.836 248.589Z" fill="#407BFF"/>
<path d="M204.489 232.911C204.489 241.308 203.259 248.331 201.836 248.573C200.412 248.816 199.279 242.247 199.311 233.849C199.344 225.452 200.541 218.446 201.981 218.187C203.421 217.928 204.538 224.546 204.489 232.911Z" fill="#407BFF"/>
<path opacity="0.2" d="M204.489 232.911C204.489 241.308 203.259 248.331 201.836 248.573C200.412 248.816 199.279 242.247 199.311 233.849C199.344 225.452 200.541 218.446 201.981 218.187C203.421 217.928 204.538 224.546 204.489 232.911Z" fill="black"/>
<path d="M130.189 96.2522C124.43 97.3037 119.323 100.595 115.987 105.405C112.651 110.216 111.358 116.152 112.391 121.914L125.561 195.097C126.609 200.858 129.899 205.968 134.711 209.305C139.522 212.642 145.461 213.933 151.223 212.896C194.23 205.164 237.901 201.744 281.587 202.686L326.52 203.673L297.751 43.7635L255.974 60.3483C215.348 76.4799 173.209 88.5077 130.189 96.2522Z" fill="#407BFF"/>
<path opacity="0.3" d="M245.555 64.3611L270.408 202.556C272.592 202.556 274.793 202.556 276.977 202.556L251.671 61.9502C249.6 62.8563 247.594 63.6329 245.555 64.3611Z" fill="black"/>
<path d="M318.884 122.61C326.828 166.766 330.21 203.107 326.488 203.786C322.767 204.466 313.269 169.209 305.325 125.053C297.38 80.8972 293.999 44.5564 297.72 43.8769C301.441 43.1973 310.939 78.3731 318.884 122.61Z" fill="#407BFF"/>
<path opacity="0.2" d="M318.884 122.61C326.828 166.766 330.21 203.107 326.488 203.786C322.767 204.466 313.269 169.209 305.325 125.053C297.38 80.8972 293.999 44.5564 297.72 43.8769C301.441 43.1973 310.939 78.3731 318.884 122.61Z" fill="black"/>
<path opacity="0.2" d="M84.7875 93.3399L95.6606 100.799C95.3446 102.496 95.1767 104.218 95.159 105.944C91.2596 105.944 85.6451 102.32 84.9331 98.3072C84.5855 96.6738 84.5362 94.9909 84.7875 93.3399Z" fill="black"/>
<path d="M93.9617 51.8699C100.531 52.4685 110.433 70.1212 103.848 76.3344C97.2624 82.5476 81.5191 50.7211 93.9617 51.8699Z" fill="#263238"/>
<path d="M70.9059 77.0463C74.7406 88.6961 76.3748 95.7345 83.9795 99.909C95.4027 106.187 108.703 96.0581 108.46 83.2919C108.25 71.8039 101.988 54.6852 89.141 53.6821C86.2287 53.5042 83.3169 54.0379 80.6571 55.237C77.9972 56.4361 75.6692 58.2647 73.874 60.5648C72.0789 62.8648 70.8706 65.5673 70.3535 68.4388C69.8363 71.3103 70.0259 74.2645 70.9059 77.0463Z" fill="#FFC3BD"/>
<path d="M102.36 49.9769C99.1671 49.3257 95.9065 49.0703 92.6515 49.2164C94.5432 47.4724 96.261 45.5487 97.7806 43.4724C94.7381 45.5564 91.3618 47.1051 87.7974 48.0514C88.3933 46.5613 88.7641 44.9908 88.8977 43.3915C86.4221 46.3687 82.2153 48.3912 77.6686 50.0901C79.6071 47.6753 81.1025 44.9363 82.0858 42C79.2543 47.2262 68.6239 51.7081 61.9252 56.1577H61.8282C61.3576 56.4364 60.9087 56.7501 60.4852 57.0962C59.9377 57.4811 59.4659 57.9638 59.0937 58.52C58.4602 59.2205 57.9831 60.0479 57.6943 60.9472C57.4055 61.8464 57.3115 62.7968 57.4187 63.7352C57.5258 64.6736 57.8316 65.5784 58.3158 66.3894C58.7999 67.2004 59.4512 67.8989 60.2263 68.4385C59.001 69.3071 58.1247 70.5833 57.7542 72.0389C57.3836 73.4944 57.543 75.0342 58.2038 76.383C58.1067 74.1178 58.6407 71.6422 60.2749 70.639C57.5242 78.5997 66.747 86.1073 74.9665 88.227C79.8206 89.4566 82.7978 70.8817 78.2026 63.5359C84.432 62.7431 89.7552 61.1898 92.9427 58.9892C90.5431 59.7679 87.9964 59.9839 85.4999 59.6203C91.4865 57.258 97.9263 53.9249 103.007 54.7662C100.56 53.8757 97.9734 53.4318 95.3698 53.4556C97.0915 52.7498 98.9297 52.3712 100.79 52.3392C106.243 52.5657 109.835 57.1933 108.443 60.2999C110.531 56.9506 109.77 51.5464 102.36 49.9769Z" fill="#263238"/>
<path d="M68.9311 91.8674C70.0683 92.8699 71.3983 93.6295 72.8395 94.0997C74.2807 94.5699 75.8028 94.7408 77.3124 94.6019C81.406 94.2136 82.1665 90.1361 80.0307 86.9972C78.0567 84.1818 73.5586 80.9781 69.9342 82.9359C69.1538 83.3525 68.4864 83.9527 67.9897 84.6847C67.4929 85.4167 67.1818 86.2586 67.083 87.1378C66.9843 88.0169 67.1009 88.9069 67.4229 89.7308C67.7448 90.5548 68.2625 91.2881 68.9311 91.8674Z" fill="#FFC3BD"/>
<path d="M132.875 225.613C132.875 225.613 166.853 319.022 163.245 357.126C159.54 396.784 136.58 463.916 136.58 463.916H115.4C115.4 463.916 127.827 399.195 129.153 360.217C130.594 317.776 91.6962 264.106 89.3177 231.406L132.875 225.613Z" fill="#407BFF"/>
<path opacity="0.2" d="M98.2175 257.812C97.4562 257.322 96.6277 256.946 95.7581 256.695C103.201 276.743 115.255 300.123 122.666 322.937C123.475 285.221 115.304 268.426 98.2175 257.812Z" fill="black"/>
<path d="M109.365 228.704C109.365 228.704 119.074 321.093 109.22 356.867C98.4275 396.056 67.3615 463.851 67.3615 463.851H44.4664C44.4664 463.851 64.4005 399.292 71.5198 360.459C79.2539 318.391 68.8824 265.627 66.6657 234.351L109.365 228.704Z" fill="#407BFF"/>
<path d="M89.8516 74.6031C90.0943 75.5577 90.8224 76.2211 91.4696 75.9784C92.1168 75.7357 92.408 74.8296 92.1653 73.8588C91.9226 72.888 91.1945 72.2408 90.5473 72.4835C89.9001 72.7262 89.5927 73.6323 89.8516 74.6031Z" fill="#263238"/>
<path d="M100.742 71.092C101 72.0628 101.712 72.7101 102.36 72.4835C103.007 72.257 103.314 71.3186 103.055 70.3639C102.796 69.4093 102.084 68.7459 101.437 68.9724C100.79 69.1989 100.564 70.1212 100.742 71.092Z" fill="#263238"/>
<path d="M97.5054 72.694C99.4246 75.2705 101.708 77.5543 104.285 79.4735C103.758 80.156 103.091 80.7183 102.329 81.1229C101.568 81.5274 100.728 81.765 99.8677 81.8196L97.5054 72.694Z" fill="#ED847E"/>
<path d="M97.6986 85.3954C96.4414 85.8539 95.0901 85.9934 93.7657 85.8014C92.4413 85.6094 91.1853 85.0919 90.1101 84.2952C90.0817 84.268 90.0591 84.2353 90.0437 84.1992C90.0282 84.163 90.0203 84.1241 90.0203 84.0848C90.0203 84.0455 90.0282 84.0066 90.0437 83.9704C90.0591 83.9343 90.0817 83.9016 90.1101 83.8745C90.1643 83.8221 90.2369 83.7928 90.3123 83.7928C90.3878 83.7928 90.4603 83.8221 90.5146 83.8745C91.5229 84.5973 92.6916 85.0647 93.9203 85.2367C95.149 85.4086 96.4011 85.2798 97.5691 84.8615C97.6052 84.8491 97.6435 84.8444 97.6815 84.8477C97.7195 84.8509 97.7564 84.862 97.7898 84.8803C97.8233 84.8985 97.8526 84.9235 97.8759 84.9537C97.8992 84.9839 97.9159 85.0186 97.9251 85.0556C97.9322 85.1297 97.9135 85.2039 97.8722 85.2658C97.831 85.3276 97.7696 85.3734 97.6986 85.3954Z" fill="#263238"/>
<path d="M85.6291 72.1275C85.5071 72.1597 85.3789 72.1597 85.2569 72.1275C85.1842 72.1009 85.1176 72.0596 85.0615 72.0063C85.0053 71.953 84.9607 71.8887 84.9303 71.8174C84.9 71.7461 84.8846 71.6694 84.8851 71.5919C84.8857 71.5144 84.902 71.4379 84.9333 71.367C85.2683 70.4631 85.8055 69.6478 86.5037 68.9832C87.202 68.3186 88.0429 67.8223 88.9622 67.5323C89.0367 67.5132 89.1142 67.5095 89.1902 67.5214C89.2661 67.5332 89.3388 67.5604 89.4039 67.6013C89.469 67.6422 89.5251 67.6959 89.5688 67.7591C89.6124 67.8224 89.6428 67.8938 89.6579 67.9692C89.68 68.1266 89.6447 68.2868 89.5586 68.4204C89.4724 68.554 89.3412 68.6523 89.1887 68.6973C88.4514 68.9257 87.7763 69.3201 87.2153 69.8503C86.6544 70.3804 86.2224 71.0322 85.9527 71.7554C85.8952 71.9156 85.7797 72.0484 85.6291 72.1275Z" fill="#263238"/>
<path d="M104.641 65.8011C104.538 65.8352 104.427 65.8397 104.321 65.8139C104.215 65.7882 104.119 65.7333 104.043 65.6555C103.581 65.0842 102.984 64.637 102.306 64.3545C101.628 64.072 100.89 63.963 100.159 64.0375C100.086 64.0539 100.009 64.0544 99.9352 64.0391C99.8612 64.0237 99.7913 63.9929 99.7301 63.9485C99.6689 63.9042 99.6179 63.8473 99.5803 63.7818C99.5427 63.7162 99.5195 63.6434 99.5121 63.5682C99.4964 63.411 99.5387 63.2535 99.6311 63.1254C99.7235 62.9972 99.8596 62.9073 100.014 62.8725C100.917 62.7579 101.834 62.8711 102.681 63.2018C103.529 63.5324 104.281 64.07 104.868 64.7656C104.975 64.8796 105.034 65.03 105.034 65.1863C105.034 65.3425 104.975 65.493 104.868 65.607C104.815 65.6946 104.736 65.7628 104.641 65.8011Z" fill="#263238"/>
<path d="M68.1541 136.363C69.5456 141.784 71.0018 147.479 72.5712 152.996C74.1407 158.514 75.7102 164.064 77.4253 169.5C79.1404 174.937 81.0497 180.309 83.0722 185.519C84.9656 190.546 87.2542 195.415 89.9165 200.081C90.2401 200.583 90.5475 201.165 90.8711 201.618L91.3727 202.346L91.6154 202.702C92.0779 203.262 92.6236 203.748 93.2334 204.142C95.2907 205.568 97.4544 206.834 99.7055 207.928C104.56 210.339 109.851 212.556 115.19 214.643C125.901 218.818 137.001 222.733 148.004 226.487L145.868 235.629C133.999 233.911 122.242 231.49 110.66 228.38C104.708 226.795 98.8522 224.872 93.1201 222.62C89.9599 221.387 86.9075 219.893 83.9945 218.154C82.0872 217.011 80.3451 215.612 78.8168 213.996L78.0887 213.219L77.6842 212.702L76.859 211.634C76.2927 210.922 75.8558 210.226 75.3543 209.514C71.8133 204.156 68.7696 198.485 66.261 192.573C63.7368 186.926 61.6011 181.247 59.6109 175.471C55.6394 164.064 52.3066 152.445 49.6277 140.667L68.1541 136.363Z" fill="#FFC3BD"/>
<path d="M47.4269 133.143C41.2785 147.479 51.2778 180.179 51.2778 180.179L81.2113 172.494C79.3617 160.956 76.6961 149.563 73.2344 138.402C68.0567 123.079 52.2001 122.109 47.4269 133.143Z" fill="#263238"/>
<path d="M145.625 226.277L158.132 224.222L153.1 239.771C153.1 239.771 142.195 239.14 142.211 233.186L145.625 226.277Z" fill="#FFC3BD"/>
<path d="M169.976 229.998L165.187 242.554L153.1 239.771L158.132 224.222L169.976 229.998Z" fill="#FFC3BD"/>
</mask>
<g mask="url(#mask0_14_402)">
<rect x="22.5338" y="26.5333" width="340.266" height="386.666" fill="#0090D4"/>
</g>
</g>
<defs>
<clipPath id="clip0_14_402">
<rect width="366" height="396" rx="61" fill="white"/>
</clipPath>
</defs>
</svg>
