<svg width="544" height="156" viewBox="0 0 544 156" fill="none" xmlns="http://www.w3.org/2000/svg">
<path d="M183.232 40.972V114H165.443V70.204L149.111 114H134.755L118.319 70.1V114H100.53V40.972H121.543L142.037 91.5299L162.323 40.972H183.232ZM192.488 84.872C192.488 78.9077 193.597 73.6716 195.817 69.1637C198.105 64.6558 201.191 61.1882 205.075 58.7609C208.959 56.3336 213.293 55.1199 218.079 55.1199C222.17 55.1199 225.742 55.9521 228.794 57.6166C231.914 59.281 234.307 61.4656 235.972 64.1704V55.9521H253.76V114H235.972V105.782C234.238 108.486 231.81 110.671 228.69 112.336C225.638 114 222.066 114.832 217.975 114.832C213.259 114.832 208.959 113.619 205.075 111.191C201.191 108.695 198.105 105.192 195.817 100.684C193.597 96.1071 192.488 90.8363 192.488 84.872ZM235.972 84.9761C235.972 80.5375 234.723 77.0352 232.226 74.4692C229.799 71.9031 226.817 70.6201 223.28 70.6201C219.743 70.6201 216.726 71.9031 214.23 74.4692C211.802 76.9659 210.589 80.4335 210.589 84.872C210.589 89.3106 211.802 92.8475 214.23 95.4829C216.726 98.049 219.743 99.332 223.28 99.332C226.817 99.332 229.799 98.049 232.226 95.4829C234.723 92.9169 235.972 89.4146 235.972 84.9761ZM284.419 37.0189V114H266.63V37.0189H284.419ZM293.773 84.872C293.773 78.9077 294.883 73.6716 297.102 69.1637C299.391 64.6558 302.477 61.1882 306.361 58.7609C310.244 56.3336 314.579 55.1199 319.364 55.1199C323.456 55.1199 327.028 55.9521 330.079 57.6166C333.2 59.281 335.593 61.4656 337.257 64.1704V55.9521H355.046V114H337.257V105.782C335.523 108.486 333.096 110.671 329.975 112.336C326.924 114 323.352 114.832 319.26 114.832C314.544 114.832 310.244 113.619 306.361 111.191C302.477 108.695 299.391 105.192 297.102 100.684C294.883 96.1071 293.773 90.8363 293.773 84.872ZM337.257 84.9761C337.257 80.5375 336.009 77.0352 333.512 74.4692C331.085 71.9031 328.103 70.6201 324.566 70.6201C321.029 70.6201 318.012 71.9031 315.515 74.4692C313.088 76.9659 311.874 80.4335 311.874 84.872C311.874 89.3106 313.088 92.8475 315.515 95.4829C318.012 98.049 321.029 99.332 324.566 99.332C328.103 99.332 331.085 98.049 333.512 95.4829C336.009 92.9169 337.257 89.4146 337.257 84.9761ZM385.704 64.1704C387.438 61.4656 389.831 59.281 392.882 57.6166C395.934 55.9521 399.505 55.1199 403.597 55.1199C408.382 55.1199 412.717 56.3336 416.601 58.7609C420.484 61.1882 423.536 64.6558 425.755 69.1637C428.044 73.6716 429.188 78.9077 429.188 84.872C429.188 90.8363 428.044 96.1071 425.755 100.684C423.536 105.192 420.484 108.695 416.601 111.191C412.717 113.619 408.382 114.832 403.597 114.832C399.575 114.832 396.003 114 392.882 112.336C389.831 110.671 387.438 108.521 385.704 105.886V141.672H367.915V55.9521H385.704V64.1704ZM411.087 84.872C411.087 80.4335 409.839 76.9659 407.342 74.4692C404.915 71.9031 401.898 70.6201 398.292 70.6201C394.755 70.6201 391.738 71.9031 389.241 74.4692C386.814 77.0352 385.6 80.5375 385.6 84.9761C385.6 89.4146 386.814 92.9169 389.241 95.4829C391.738 98.049 394.755 99.332 398.292 99.332C401.829 99.332 404.845 98.049 407.342 95.4829C409.839 92.8475 411.087 89.3106 411.087 84.872ZM464.944 114.832C459.257 114.832 454.125 113.619 449.548 111.191C445.04 108.764 441.468 105.296 438.833 100.788C436.267 96.2805 434.984 91.0097 434.984 84.9761C434.984 79.0118 436.301 73.7757 438.937 69.2678C441.572 64.6905 445.178 61.1882 449.756 58.7609C454.333 56.3336 459.465 55.1199 465.152 55.1199C470.839 55.1199 475.971 56.3336 480.548 58.7609C485.125 61.1882 488.732 64.6905 491.367 69.2678C494.002 73.7757 495.32 79.0118 495.32 84.9761C495.32 90.9404 493.968 96.2111 491.263 100.788C488.628 105.296 484.987 108.764 480.34 111.191C475.763 113.619 470.631 114.832 464.944 114.832ZM464.944 99.436C468.342 99.436 471.22 98.1877 473.578 95.691C476.006 93.1943 477.219 89.6227 477.219 84.9761C477.219 80.3295 476.04 76.7578 473.682 74.2611C471.394 71.7644 468.55 70.5161 465.152 70.5161C461.684 70.5161 458.806 71.7644 456.518 74.2611C454.229 76.6885 453.085 80.2601 453.085 84.9761C453.085 89.6227 454.194 93.1943 456.414 95.691C458.702 98.1877 461.546 99.436 464.944 99.436ZM522.546 65.6268C524.627 62.4366 527.228 59.9399 530.349 58.1367C533.469 56.2642 536.937 55.3279 540.751 55.3279V74.1571H535.862C531.423 74.1571 528.095 75.128 525.875 77.0699C523.656 78.9424 522.546 82.2713 522.546 87.0566V114H504.758V55.9521H522.546V65.6268Z" fill="#0090D4"/>
<mask id="mask0_4_286" style="mask-type:alpha" maskUnits="userSpaceOnUse" x="-1" y="24" width="86" height="132">
<path d="M22.8223 151.729H26.4451L27.8933 143.345H24.2705L22.8223 151.729Z" fill="#FFC3BD"/>
<path d="M1.53088 151.729H5.15371L8.46252 143.345H4.8397L1.53088 151.729Z" fill="#FFC3BD"/>
<path d="M5.65971 151.312H1.24484C1.17263 151.313 1.10271 151.338 1.04534 151.382C0.987974 151.425 0.946192 151.487 0.926141 151.556L0.0216079 154.776C-0.000956437 154.849 -0.00603231 154.927 0.00677603 155.003C0.0195844 155.08 0.0499266 155.152 0.0954026 155.214C0.140879 155.276 0.200237 155.327 0.268776 155.362C0.337315 155.398 0.413151 155.417 0.490278 155.418C1.89629 155.394 2.95548 155.31 4.74112 155.31C5.84249 155.31 8.10148 155.427 9.62466 155.427C11.1478 155.427 11.429 153.923 10.8151 153.787C8.0593 153.177 7.06572 152.334 6.21274 151.532C6.06176 151.394 5.86487 151.315 5.65971 151.312Z" fill="#263238"/>
<path d="M26.4404 151.312H22.4896C22.4167 151.313 22.3461 151.337 22.2879 151.381C22.2298 151.425 22.1871 151.486 22.1662 151.556L21.2663 154.776C21.2427 154.849 21.2369 154.928 21.2492 155.004C21.2616 155.081 21.2919 155.153 21.3375 155.216C21.3832 155.278 21.443 155.329 21.5121 155.364C21.5812 155.399 21.6575 155.418 21.735 155.418C23.141 155.394 25.2266 155.31 27.0169 155.31C29.1166 155.31 30.9162 155.427 33.3768 155.427C34.8625 155.427 35.3592 153.923 34.7453 153.787C31.9333 153.168 29.6415 153.102 27.2841 151.593C27.0351 151.422 26.7426 151.324 26.4404 151.312Z" fill="#263238"/>
<path d="M26.2531 48.0312C28.1652 49.231 30.1758 50.4402 32.1583 51.5885C34.1408 52.7367 36.1561 53.8521 38.1714 54.8176C38.6728 55.066 39.1743 55.2863 39.6758 55.5112C39.9242 55.6237 40.1726 55.7128 40.421 55.8159L40.7959 55.9705L41.1005 56.083C41.7444 56.3636 42.4553 56.4531 43.1486 56.3408C43.9059 56.15 44.5854 55.7292 45.0936 55.1363C45.4253 54.7799 45.7277 54.3975 45.9981 53.9927C46.1387 53.7818 46.2747 53.5616 46.4012 53.3366L46.7621 52.6758L49.4147 53.285C49.376 53.6379 49.3181 53.9883 49.2413 54.3349C49.1663 54.6629 49.082 54.991 48.9789 55.3191C48.7747 55.9915 48.4965 56.6391 48.1493 57.25C47.7672 57.9169 47.294 58.5274 46.7433 59.0637C46.1444 59.6548 45.4423 60.1314 44.6718 60.4698C43.8785 60.8135 43.0284 61.0074 42.1644 61.0415C41.3557 61.0784 40.5458 60.9978 39.7601 60.8025C39.582 60.7603 39.3665 60.7135 39.2165 60.6619L38.7478 60.5166C38.4432 60.4182 38.1292 60.3245 37.8339 60.2167C37.2434 59.9964 36.6341 59.7902 36.067 59.5465C33.8051 58.6098 31.5974 57.5474 29.4541 56.3642C28.3902 55.7831 27.3404 55.1878 26.3093 54.5598C25.2782 53.9318 24.2612 53.3132 23.2255 52.6148L26.2531 48.0312Z" fill="#FFC3BD"/>
<path d="M20.8025 51.3729C21.5196 54.8317 30.2228 59.809 30.2228 59.809L33.3957 51.4713C33.3957 51.4713 30.9164 49.92 27.2139 47.4455C23.5114 44.9709 20.0104 47.5767 20.8025 51.3729Z" fill="#263238"/>
<path d="M45.7544 54.0116L48.2712 50.0607L50.1458 54.3631C50.1458 54.3631 48.6555 56.6221 46.3543 55.4598L45.7544 54.0116Z" fill="#FFC3BD"/>
<path d="M51.4816 48.5656L52.7142 51.79L50.1506 54.3583L48.2712 50.0606L51.4816 48.5656Z" fill="#FFC3BD"/>
<path opacity="0.2" d="M27.8935 143.349L27.1436 147.671H23.5255L24.2707 143.349H27.8935Z" fill="black"/>
<path opacity="0.2" d="M4.8395 143.349H8.46232L6.75168 147.671H3.13354L4.8395 143.349Z" fill="black"/>
<path d="M25.0016 46.5831C25.0016 46.5831 30.0304 56.9501 27.4809 77.8153L8.26539 80.3367C7.91857 77.3841 8.73406 62.6538 4.85815 49.0389C6.94404 48.3506 9.07136 47.7949 11.2274 47.3752C13.9243 46.8615 16.6487 46.5048 19.3869 46.3066C21.2629 46.2493 23.1404 46.3418 25.0016 46.5831Z" fill="#263238"/>
<path opacity="0.2" d="M4.87695 49.0483L4.96131 49.0202C6.83599 48.4953 8.99656 50.4731 10.1495 53.3601C11.832 57.5781 13.8145 63.1412 13.8145 63.1412L7.60461 64.6269C7.17802 59.361 6.26491 54.1459 4.87695 49.0483Z" fill="black"/>
<path d="M11.3822 38.0205C12.0899 40.5982 12.9523 45.3787 11.2463 47.3939C13.4571 49.2376 16.1675 50.3799 19.0309 50.6746C20.826 48.7671 19.4059 46.3301 19.4059 46.3301C16.4251 46.0067 16.3455 43.8086 16.7063 41.6855L11.3822 38.0205Z" fill="#FFC3BD"/>
<path d="M26.3374 70.2135L22.0303 46.3113C21.2378 46.4537 20.4812 46.7508 19.8036 47.1856C19.126 47.6205 18.5406 48.1846 18.0811 48.8457C17.6215 49.5068 17.2966 50.2519 17.1251 51.0386C16.9535 51.8252 16.9386 52.638 17.0811 53.4304L19.2136 65.2784C19.5055 66.8766 20.4195 68.2937 21.755 69.2189C23.0905 70.1441 24.7385 70.5018 26.3374 70.2135Z" fill="#407BFF"/>
<path opacity="0.3" d="M26.3374 70.2135L22.0303 46.3113C21.2378 46.4537 20.4812 46.7508 19.8036 47.1856C19.126 47.6205 18.5406 48.1846 18.0811 48.8457C17.6215 49.5068 17.2966 50.2519 17.1251 51.0386C16.9535 51.8252 16.9386 52.638 17.0811 53.4304L19.2136 65.2784C19.5055 66.8766 20.4195 68.2937 21.755 69.2189C23.0905 70.1441 24.7385 70.5018 26.3374 70.2135Z" fill="black"/>
<path d="M42.8395 93.8719L39.8212 94.4156C39.3023 94.5087 38.7694 94.4904 38.2581 94.3618C37.7468 94.2331 37.2687 93.9972 36.8556 93.6696C36.4424 93.3421 36.1037 92.9303 35.8619 92.4618C35.6201 91.9932 35.4808 91.4786 35.4532 90.9521L34.2112 67.0499C34.1629 66.1468 34.4464 65.2571 35.0083 64.5484C35.5703 63.8397 36.3719 63.3609 37.2623 63.2021L42.8441 62.1945C43.4435 62.0876 44.06 62.1296 44.6393 62.3168C45.2186 62.504 45.7431 62.8307 46.1666 63.2681C46.5901 63.7055 46.8997 64.2402 47.0681 64.8253C47.2365 65.4103 47.2586 66.0278 47.1325 66.6234L44.8875 77.131C44.8115 77.4929 44.7894 77.864 44.8219 78.2324L45.8624 89.8882C45.9455 90.8095 45.6816 91.7286 45.1224 92.4655C44.5633 93.2024 43.7491 93.704 42.8395 93.8719Z" fill="#407BFF"/>
<path opacity="0.2" d="M42.844 62.1851L37.2621 63.1881C36.3726 63.3487 35.5722 63.8281 35.0106 64.5363C34.449 65.2445 34.1648 66.1332 34.2111 67.0359L34.6188 74.9704C38.2994 74.3456 41.9894 73.8253 45.6888 73.4098L47.1323 66.6047C47.2578 66.0096 47.2352 65.3927 47.0664 64.8084C46.8976 64.2241 46.5878 63.6902 46.1643 63.2536C45.7408 62.8171 45.2164 62.4914 44.6375 62.3051C44.0585 62.1188 43.4426 62.0776 42.844 62.1851Z" fill="black"/>
<path d="M47.4559 84.4797L42.3802 85.389L42.4224 76.5873L47.4981 75.6734L47.4559 84.4797Z" fill="#407BFF"/>
<path d="M48.2244 79.9384C48.2244 82.3708 47.8682 84.4048 47.4558 84.4751C47.0434 84.5454 46.7153 82.6426 46.7247 80.2102C46.7341 77.7778 47.0809 75.7485 47.498 75.6735C47.9151 75.5985 48.2385 77.5154 48.2244 79.9384Z" fill="#407BFF"/>
<path opacity="0.2" d="M48.2244 79.9384C48.2244 82.3708 47.8682 84.4048 47.4558 84.4751C47.0434 84.5454 46.7153 82.6426 46.7247 80.2102C46.7341 77.7778 47.0809 75.7485 47.498 75.6735C47.9151 75.5985 48.2385 77.5154 48.2244 79.9384Z" fill="black"/>
<path d="M26.703 40.3545C25.0349 40.6591 23.5557 41.6124 22.5893 43.0057C21.623 44.399 21.2484 46.1186 21.5476 47.7876L25.3626 68.9855C25.666 70.6542 26.6191 72.1342 28.0127 73.1008C29.4063 74.0673 31.1265 74.4414 32.7957 74.1409C45.2529 71.9015 57.9025 70.9109 70.5564 71.1836L83.5714 71.4695L75.2384 25.1508L63.1374 29.9547C51.3697 34.6273 39.1641 38.1112 26.703 40.3545Z" fill="#407BFF"/>
<path opacity="0.3" d="M60.1194 31.117L67.3182 71.1461C67.9509 71.1461 68.5883 71.1461 69.221 71.1461L61.891 30.4187C61.2911 30.6811 60.7099 30.9061 60.1194 31.117Z" fill="black"/>
<path d="M81.3595 47.9891C83.6607 60.7791 84.6402 71.3054 83.5623 71.5023C82.4843 71.6991 79.7332 61.4868 77.4321 48.6968C75.1309 35.9068 74.1514 25.3805 75.2293 25.1836C76.3073 24.9868 79.0584 35.1757 81.3595 47.9891Z" fill="#407BFF"/>
<path opacity="0.2" d="M81.3595 47.9891C83.6607 60.7791 84.6402 71.3054 83.5623 71.5023C82.4843 71.6991 79.7332 61.4868 77.4321 48.6968C75.1309 35.9068 74.1514 25.3805 75.2293 25.1836C76.3073 24.9868 79.0584 35.1757 81.3595 47.9891Z" fill="black"/>
<path opacity="0.2" d="M13.5522 39.5109L16.7016 41.6715C16.6101 42.1631 16.5615 42.6618 16.5563 43.1618C15.4268 43.1618 13.8006 42.112 13.5943 40.9497C13.4937 40.4766 13.4794 39.9891 13.5522 39.5109Z" fill="black"/>
<path d="M16.2095 27.4989C18.1123 27.6723 20.9806 32.7855 19.0731 34.5851C17.1656 36.3848 12.6054 27.1661 16.2095 27.4989Z" fill="#263238"/>
<path d="M9.53126 34.7914C10.642 38.1658 11.1154 40.2045 13.3181 41.4137C16.6269 43.2321 20.4794 40.2982 20.4091 36.6004C20.3482 33.2729 18.5344 28.3143 14.8132 28.0238C13.9696 27.9722 13.1262 28.1268 12.3558 28.4742C11.5853 28.8215 10.911 29.3511 10.391 30.0174C9.87104 30.6836 9.52104 31.4664 9.37126 32.2981C9.22147 33.1299 9.27638 33.9856 9.53126 34.7914Z" fill="#FFC3BD"/>
<path d="M18.642 26.9505C17.7173 26.7619 16.7729 26.6879 15.83 26.7303C16.378 26.2251 16.8755 25.6679 17.3157 25.0665C16.4344 25.6701 15.4564 26.1187 14.424 26.3928C14.5966 25.9612 14.704 25.5063 14.7427 25.043C14.0256 25.9054 12.8071 26.4912 11.4901 26.9833C12.0516 26.2839 12.4848 25.4905 12.7696 24.64C11.9494 26.1538 8.87027 27.452 6.92998 28.7408H6.90185C6.76556 28.8216 6.63553 28.9124 6.51286 29.0127C6.35427 29.1242 6.21762 29.264 6.1098 29.4251C5.9263 29.628 5.78811 29.8677 5.70445 30.1281C5.6208 30.3886 5.59358 30.6639 5.62462 30.9357C5.65566 31.2075 5.74424 31.4696 5.88446 31.7045C6.02469 31.9394 6.21335 32.1418 6.43787 32.2981C6.08296 32.5497 5.82914 32.9193 5.7218 33.3409C5.61447 33.7625 5.66063 34.2085 5.85203 34.5992C5.82391 33.9431 5.97857 33.226 6.45193 32.9355C5.65519 35.2413 8.32662 37.4159 10.7075 38.0299C12.1135 38.3861 12.9758 33.0058 11.6448 30.878C13.4492 30.6483 14.9911 30.1984 15.9144 29.561C15.2193 29.7866 14.4816 29.8491 13.7585 29.7438C15.4926 29.0596 17.3579 28.0941 18.8295 28.3378C18.1208 28.0798 17.3715 27.9513 16.6174 27.9582C17.1161 27.7537 17.6485 27.6441 18.1874 27.6348C19.7669 27.7004 20.8073 29.0408 20.4042 29.9406C21.0088 28.9705 20.7886 27.4051 18.642 26.9505Z" fill="#263238"/>
<path d="M8.95922 39.0844C9.28863 39.3747 9.67387 39.5948 10.0913 39.731C10.5088 39.8672 10.9497 39.9167 11.3869 39.8764C12.5727 39.7639 12.7929 38.5829 12.1743 37.6737C11.6025 36.8582 10.2996 35.9302 9.2498 36.4973C9.02374 36.618 8.83043 36.7918 8.68655 37.0038C8.54267 37.2159 8.45253 37.4597 8.42393 37.7144C8.39533 37.969 8.42912 38.2268 8.52237 38.4655C8.61563 38.7042 8.76556 38.9166 8.95922 39.0844Z" fill="#FFC3BD"/>
<path d="M27.481 77.8247C27.481 77.8247 37.3231 104.881 36.2779 115.918C35.2047 127.405 28.5542 146.85 28.5542 146.85H22.4193C22.4193 146.85 26.0187 128.104 26.403 116.813C26.8202 104.52 15.5533 88.9744 14.8644 79.5025L27.481 77.8247Z" fill="#407BFF"/>
<path opacity="0.2" d="M17.4422 87.1512C17.2217 87.0094 16.9818 86.9004 16.7299 86.8278C18.8857 92.6346 22.3773 99.4069 24.5238 106.015C24.7582 95.0905 22.3914 90.2257 17.4422 87.1512Z" fill="black"/>
<path d="M20.6713 78.7198C20.6713 78.7198 23.4833 105.481 20.6291 115.843C17.5031 127.194 8.50461 146.832 8.50461 146.832H1.87292C1.87292 146.832 7.64694 128.132 9.70909 116.884C11.9493 104.698 8.94516 89.4149 8.30308 80.3555L20.6713 78.7198Z" fill="#407BFF"/>
<path d="M9.67176 146.977H1.24976L1.81685 144.493H10.8341L9.67176 146.977Z" fill="#407BFF"/>
<path opacity="0.4" d="M9.67176 146.977H1.24976L1.81685 144.493H10.8341L9.67176 146.977Z" fill="black"/>
<path d="M29.9135 146.977H21.5806L21.7165 144.615L30.3775 144.493L29.9135 146.977Z" fill="#407BFF"/>
<path opacity="0.4" d="M29.9135 146.977H21.5806L21.7165 144.615L30.3775 144.493L29.9135 146.977Z" fill="black"/>
<path d="M15.019 34.0837C15.0893 34.3602 15.3002 34.5523 15.4877 34.482C15.6751 34.4117 15.7595 34.1493 15.6892 33.8681C15.6189 33.5869 15.408 33.3994 15.2205 33.4697C15.033 33.54 14.944 33.8025 15.019 34.0837Z" fill="#263238"/>
<path d="M18.1733 33.0667C18.2483 33.3479 18.4545 33.5353 18.642 33.4697C18.8295 33.4041 18.9185 33.1323 18.8435 32.8558C18.7685 32.5792 18.5623 32.3871 18.3749 32.4527C18.1874 32.5183 18.1218 32.7855 18.1733 33.0667Z" fill="#263238"/>
<path d="M17.236 33.5307C17.7919 34.277 18.4534 34.9385 19.1997 35.4944C19.047 35.6921 18.8539 35.855 18.6332 35.9722C18.4126 36.0893 18.1695 36.1581 17.9202 36.174L17.236 33.5307Z" fill="#ED847E"/>
<path d="M17.2919 37.2097C16.9278 37.3425 16.5364 37.3829 16.1528 37.3273C15.7691 37.2717 15.4053 37.1218 15.0939 36.891C15.0857 36.8832 15.0791 36.8737 15.0747 36.8632C15.0702 36.8528 15.0679 36.8415 15.0679 36.8301C15.0679 36.8187 15.0702 36.8074 15.0747 36.797C15.0791 36.7865 15.0857 36.777 15.0939 36.7692C15.1096 36.754 15.1306 36.7455 15.1525 36.7455C15.1743 36.7455 15.1953 36.754 15.211 36.7692C15.5031 36.9786 15.8416 37.1139 16.1975 37.1637C16.5535 37.2135 16.9161 37.1762 17.2545 37.0551C17.2649 37.0515 17.276 37.0501 17.287 37.0511C17.298 37.052 17.3087 37.0552 17.3184 37.0605C17.3281 37.0658 17.3366 37.073 17.3433 37.0818C17.3501 37.0905 17.3549 37.1006 17.3576 37.1113C17.3596 37.1327 17.3542 37.1542 17.3422 37.1722C17.3303 37.1901 17.3125 37.2034 17.2919 37.2097Z" fill="#263238"/>
<path d="M13.7959 33.3666C13.7606 33.3759 13.7235 33.3759 13.6881 33.3666C13.6671 33.3589 13.6478 33.3469 13.6315 33.3315C13.6153 33.316 13.6023 33.2974 13.5935 33.2768C13.5848 33.2561 13.5803 33.2339 13.5804 33.2114C13.5806 33.189 13.5853 33.1668 13.5944 33.1463C13.6914 32.8845 13.847 32.6483 14.0493 32.4558C14.2515 32.2633 14.4951 32.1196 14.7614 32.0356C14.783 32.03 14.8054 32.029 14.8274 32.0324C14.8494 32.0358 14.8705 32.0437 14.8893 32.0555C14.9082 32.0674 14.9244 32.0829 14.9371 32.1013C14.9497 32.1196 14.9585 32.1403 14.9629 32.1621C14.9693 32.2077 14.9591 32.2541 14.9341 32.2928C14.9092 32.3315 14.8712 32.36 14.827 32.373C14.6134 32.4392 14.4179 32.5534 14.2554 32.707C14.0929 32.8605 13.9678 33.0493 13.8897 33.2588C13.873 33.3052 13.8396 33.3437 13.7959 33.3666Z" fill="#263238"/>
<path d="M19.3029 31.5341C19.2729 31.544 19.2408 31.5453 19.2102 31.5378C19.1795 31.5304 19.1516 31.5145 19.1295 31.4919C18.9958 31.3264 18.8229 31.1969 18.6265 31.1151C18.4301 31.0333 18.2164 31.0017 18.0047 31.0233C17.9833 31.028 17.9612 31.0282 17.9398 31.0237C17.9183 31.0193 17.8981 31.0103 17.8804 30.9975C17.8626 30.9846 17.8478 30.9682 17.837 30.9492C17.8261 30.9302 17.8193 30.9091 17.8172 30.8873C17.8127 30.8418 17.8249 30.7962 17.8517 30.7591C17.8784 30.7219 17.9179 30.6959 17.9625 30.6858C18.224 30.6526 18.4896 30.6854 18.7352 30.7812C18.9808 30.877 19.1985 31.0327 19.3685 31.2342C19.3995 31.2672 19.4167 31.3107 19.4167 31.356C19.4167 31.4013 19.3995 31.4449 19.3685 31.4779C19.3533 31.5033 19.3303 31.523 19.3029 31.5341Z" fill="#263238"/>
<path d="M8.73419 51.9728C9.13725 53.5429 9.55905 55.1926 10.0137 56.7908C10.4683 58.3889 10.9229 59.9965 11.4197 61.5712C11.9165 63.1459 12.4695 64.7019 13.0553 66.211C13.6038 67.6672 14.2667 69.0776 15.0378 70.4291C15.1315 70.5744 15.2206 70.7431 15.3143 70.8743L15.4596 71.0852L15.5299 71.1883C15.6639 71.3505 15.8219 71.4912 15.9986 71.6054C16.5945 72.0184 17.2212 72.3851 17.8733 72.7021C19.2793 73.4004 20.8118 74.0425 22.3584 74.6471C25.461 75.8563 28.6761 76.9905 31.8631 78.0778L31.2444 80.7258C27.8065 80.2281 24.4011 79.527 21.0462 78.6261C19.3223 78.1671 17.6261 77.61 15.9658 76.9576C15.0504 76.6004 14.1663 76.1677 13.3225 75.6641C12.77 75.3328 12.2654 74.9276 11.8227 74.4596L11.6118 74.2347L11.4947 74.0847L11.2556 73.7754C11.0916 73.5692 10.9651 73.3676 10.8198 73.1614C9.79413 71.6094 8.91249 69.9669 8.18585 68.2544C7.45472 66.6188 6.83608 64.9737 6.25961 63.3006C5.10926 59.9965 4.14387 56.631 3.36792 53.2195L8.73419 51.9728Z" fill="#FFC3BD"/>
<path d="M2.73043 51.0402C0.949485 55.1927 3.84586 64.6645 3.84586 64.6645L12.5163 62.4383C11.9805 59.0962 11.2084 55.7963 10.2057 52.5634C8.70597 48.1251 4.11301 47.8439 2.73043 51.0402Z" fill="#263238"/>
<path d="M6.82217 151.945C6.50574 151.937 6.19125 151.893 5.88483 151.814C5.8689 151.809 5.85463 151.8 5.8438 151.788C5.83297 151.775 5.82605 151.76 5.82391 151.743C5.82333 151.726 5.82739 151.709 5.83565 151.695C5.8439 151.68 5.85604 151.667 5.87077 151.659C6.00669 151.575 7.21585 150.857 7.60485 151.064C7.64803 151.087 7.68343 151.123 7.70674 151.166C7.73004 151.209 7.74024 151.258 7.73608 151.307C7.74298 151.396 7.72824 151.485 7.69314 151.567C7.65803 151.648 7.60361 151.72 7.53455 151.776C7.32227 151.91 7.07175 151.969 6.82217 151.945ZM6.13791 151.692C6.56043 151.833 7.02078 151.81 7.42676 151.626C7.47233 151.589 7.50842 151.542 7.53205 151.488C7.55569 151.434 7.56618 151.375 7.56267 151.317C7.56418 151.297 7.56018 151.276 7.55111 151.258C7.54203 151.24 7.52821 151.225 7.51112 151.214C7.30959 151.097 6.62533 151.42 6.13791 151.692Z" fill="#407BFF"/>
<path d="M5.89885 151.814H5.85667C5.84407 151.806 5.83388 151.795 5.82726 151.781C5.82063 151.768 5.81784 151.753 5.81917 151.739C5.81917 151.692 5.97384 150.647 6.41439 150.304C6.46492 150.261 6.52407 150.229 6.58791 150.211C6.65175 150.192 6.7188 150.187 6.78463 150.197C6.84777 150.195 6.90938 150.216 6.95776 150.257C7.00614 150.297 7.03793 150.354 7.04709 150.417C7.09864 150.825 6.33002 151.617 5.94103 151.823C5.9263 151.825 5.91129 151.822 5.89885 151.814ZM6.71902 150.347C6.64546 150.349 6.57469 150.375 6.51749 150.422C6.24686 150.744 6.07445 151.138 6.0207 151.556C6.4097 151.275 6.90649 150.675 6.87368 150.436C6.87368 150.436 6.87368 150.365 6.75651 150.351L6.71902 150.347Z" fill="#407BFF"/>
<path d="M27.9124 151.945C27.5326 151.937 27.1544 151.893 26.7829 151.814C26.7655 151.811 26.7493 151.803 26.7373 151.79C26.7254 151.778 26.7183 151.761 26.7173 151.743C26.7156 151.725 26.7197 151.707 26.7289 151.691C26.7381 151.675 26.7521 151.662 26.7688 151.654C26.9376 151.57 28.4326 150.829 28.8591 151.078C28.899 151.1 28.9322 151.133 28.9552 151.173C28.9783 151.212 28.9904 151.257 28.9903 151.303C28.9936 151.382 28.9784 151.461 28.9459 151.533C28.9133 151.606 28.8644 151.67 28.8029 151.72C28.5396 151.892 28.226 151.972 27.9124 151.945ZM27.0735 151.692C27.8655 151.823 28.4795 151.79 28.6951 151.593C28.7358 151.56 28.768 151.518 28.7892 151.47C28.8104 151.422 28.8199 151.369 28.8169 151.317C28.8184 151.299 28.8148 151.281 28.8065 151.265C28.7982 151.25 28.7855 151.237 28.7701 151.228C28.5357 151.097 27.6874 151.406 27.0782 151.692H27.0735Z" fill="#407BFF"/>
<path d="M26.7967 151.814C26.7815 151.818 26.7652 151.818 26.7499 151.814C26.7378 151.805 26.7283 151.792 26.7225 151.778C26.7168 151.764 26.7149 151.749 26.7171 151.734C26.7828 151.211 27.0069 150.72 27.3592 150.328C27.4907 150.22 27.6582 150.167 27.8278 150.178C28.0622 150.206 28.1231 150.323 28.1371 150.422C28.1793 150.829 27.2654 151.612 26.8202 151.828L26.7967 151.814ZM27.7669 150.347C27.6552 150.347 27.5472 150.387 27.4623 150.459C27.1742 150.769 26.985 151.157 26.9186 151.575C27.3873 151.307 28.0059 150.694 27.9778 150.445C27.9778 150.445 27.9778 150.365 27.8185 150.351L27.7669 150.347Z" fill="#407BFF"/>
<path d="M31.1741 78.0168L34.7969 77.4216L33.3393 81.9256C33.3393 81.9256 30.1805 81.7428 30.1852 80.0181L31.1741 78.0168Z" fill="#FFC3BD"/>
<path d="M38.2276 79.0948L36.8403 82.7317L33.3394 81.9256L34.7969 77.4216L38.2276 79.0948Z" fill="#FFC3BD"/>
</mask>
<g mask="url(#mask0_4_286)">
<rect x="-4.47998" y="20.16" width="98.56" height="112" fill="#0090D4"/>
</g>
</svg>
